Genre:Drama | Romance
Language:English
IMDb:http://www.imdb.com/title/tt0775543/
Source:720p.BluRay.x264-SiNNERS



Format : MPEG-4
Format profile : Base Media
Codec ID : isom
File size : 1.83 GiB
Duration : 1h 29mn
Overall bit rate : 2 925 Kbps
Movie name : Night.Catches.Us.2010.LiMiTED.720p.BRRip.x264.Feel-Free


Video
Format settings, CABAC : Yes
Format settings, ReFrames : 4 frames
Codec ID : avc1
Codec ID/Info : Advanced Video Coding
Duration : 1h 29mn
Bit rate mode : Variable
Bit rate : 2 597 Kbps
Width : 1 280 pixels
Height : 688 pixels
Display aspect ratio : 1.860
Frame rate mode : Constant
Frame rate : 23.976 fps
Color space : YUV
Chroma subsampling : 4:2:0
Bit depth : 8 bits
Scan type : Progressive
Bits/(Pixel*Frame) : 0.123
Stream size : 1.60 GiB (88%)
Writing library : x264

Audio
ID : 2
Format : AAC
Format/Info : Advanced Audio Codec
Format version : Version 4
Format profile : LC
Codec ID : 40
Duration : 1h 29mn
Bit rate mode : Variable
Bit rate : 352.8 Kbps
Channel(s) : 6 channels
Channel positions : Front: L C R, Side: L R, LFE
Sampling rate : 48.0 KHz
Stream size : 228 MiB (12%)


Plot:
In 1976, complex political and emotional forces are set in motion when a young man returns to the race-torn Philadelphia neighborhood where he came of age during the Black Power movement
 
http://rapidhdd.com/images/883351vlcsnap-00003.png
 
http://www.rapidhdd.com/images/244601vlcsnap-00004.png
 
http://www.rapidhdd.com/images/979409vlcsnap-00005.png
 
http://www.rapidhdd.com/images/589880vlcsnap-00006.png
 
http://www.rapidhdd.com/images/314810vlcsnap-00007.png

